<svg width="200" height="200" viewBox="0 0 200 200" fill="none" xmlns="http://www.w3.org/2000/svg">
<rect width="200" height="200" rx="16" fill="#1F41EE"/>
<path d="M22.2809 35.18H23.0509C25.4775 35.18 27.5075 35.8333 29.1409 37.14C30.8209 38.4467 31.6609 40.5233 31.6609 43.37V86H31.2409C30.1675 86 29.0942 85.86 28.0209 85.58C26.9942 85.3 26.0375 84.8567 25.1509 84.25C24.3109 83.5967 23.6109 82.78 23.0509 81.8C22.5375 80.7733 22.2809 79.5133 22.2809 78.02V35.18ZM38.2409 61.36C38.2409 60.8 38.1942 60.2633 38.1009 59.75C38.0542 59.2367 37.9142 58.7933 37.6809 58.42C37.4942 58 37.1909 57.6733 36.7709 57.44C36.3975 57.16 35.8609 57.02 35.1609 57.02C34.7875 57.02 34.3909 57.09 33.9709 57.23C33.5975 57.3233 33.2475 57.51 32.9209 57.79C32.7342 57.4167 32.6175 57.0667 32.5709 56.74C32.5242 56.3667 32.5009 55.9933 32.5009 55.62C32.5009 54.1267 33.1309 52.89 34.3909 51.91C35.6509 50.93 37.1675 50.44 38.9409 50.44C41.7409 50.44 43.8875 51.1633 45.3809 52.61C46.8742 54.01 47.6209 56.04 47.6209 58.7V86C46.5475 86 45.4509 85.8833 44.3309 85.65C43.2575 85.37 42.2542 84.9267 41.3209 84.32C40.4342 83.6667 39.6875 82.8267 39.0809 81.8C38.5209 80.7267 38.2409 79.3733 38.2409 77.74V61.36ZM63.3113 86H62.6113C61.5379 86 60.4879 85.8833 59.4613 85.65C58.4346 85.37 57.5013 84.9267 56.6613 84.32C55.8679 83.6667 55.2146 82.8267 54.7013 81.8C54.1879 80.7733 53.9313 79.5133 53.9313 78.02V59.19C53.9313 56.6233 54.5379 54.5233 55.7513 52.89C57.0113 51.2567 59.0413 50.44 61.8413 50.44C63.7079 50.44 65.2479 50.93 66.4613 51.91C67.6746 52.8433 68.2812 54.36 68.2812 56.46C68.2812 57.16 68.1879 57.6733 68.0013 58C67.3479 57.44 66.6479 57.16 65.9013 57.16C64.8746 57.16 64.1746 57.51 63.8013 58.21C63.4746 58.91 63.3113 59.6567 63.3113 60.45V86ZM69.5413 50.51C69.7746 50.4633 70.0079 50.44 70.2413 50.44H70.9413C73.4613 50.44 75.4213 51.0933 76.8213 52.4C78.2213 53.66 78.9213 55.48 78.9213 57.86V61.71C78.9213 64.8833 78.1279 67.24 76.5413 68.78C74.9546 70.32 73.0179 71.09 70.7313 71.09H70.2413C68.4679 70.9967 67.0213 70.4133 65.9013 69.34C64.8279 68.22 64.2913 66.89 64.2913 65.35C64.2913 65.1167 64.2913 64.9067 64.2913 64.72C64.3379 64.5333 64.4313 64.2533 64.5713 63.88C64.9446 64.2533 65.2713 64.5333 65.5513 64.72C65.8313 64.9067 66.2979 65 66.9513 65C68.0246 65 68.7246 64.6267 69.0513 63.88C69.3779 63.0867 69.5413 62.1767 69.5413 61.15V50.51ZM78.6413 79.21C78.6413 80.5167 78.4079 81.6133 77.9413 82.5C77.5213 83.34 76.9613 84.04 76.2613 84.6C75.5613 85.1133 74.7913 85.4867 73.9513 85.72C73.1113 85.9067 72.2946 86 71.5013 86C69.1213 86 67.4413 85.4167 66.4613 84.25C65.4813 83.0833 64.9913 81.7767 64.9913 80.33C64.9913 80.0967 64.9913 79.8167 64.9913 79.49C65.0379 79.1633 65.1546 78.8133 65.3413 78.44C65.9479 79 66.6479 79.28 67.4413 79.28C68.5613 79.1867 69.2146 78.8133 69.4013 78.16C69.5879 77.5067 69.6813 76.69 69.6813 75.71V73.12C70.3813 72.9333 71.2213 72.84 72.2013 72.84C73.4146 72.84 74.4179 73.0267 75.2113 73.4C76.0513 73.7733 76.7279 74.2633 77.2413 74.87C77.7546 75.4767 78.1046 76.1767 78.2913 76.97C78.5246 77.7167 78.6413 78.4633 78.6413 79.21ZM100.858 61.36C100.858 60.8 100.811 60.2633 100.718 59.75C100.671 59.2367 100.531 58.7933 100.298 58.42C100.111 58 99.808 57.6733 99.388 57.44C99.0147 57.16 98.478 57.02 97.778 57.02C97.4047 57.02 97.008 57.09 96.588 57.23C96.2147 57.3233 95.8647 57.51 95.538 57.79C95.3514 57.4167 95.2347 57.0667 95.188 56.74C95.1414 56.3667 95.118 55.9933 95.118 55.62C95.118 54.1267 95.748 52.89 97.008 51.91C98.268 50.93 99.7847 50.44 101.558 50.44C104.358 50.44 106.505 51.1633 107.998 52.61C109.491 54.01 110.238 56.04 110.238 58.7V86C109.165 86 108.068 85.8833 106.948 85.65C105.875 85.37 104.871 84.9267 103.938 84.32C103.051 83.6667 102.305 82.8267 101.698 81.8C101.138 80.7267 100.858 79.3733 100.858 77.74V61.36ZM94.278 75.08C94.278 75.64 94.3014 76.1767 94.348 76.69C94.4414 77.2033 94.5814 77.67 94.768 78.09C95.0014 78.4633 95.3047 78.79 95.678 79.07C96.098 79.3033 96.658 79.42 97.358 79.42C97.7314 79.42 98.1047 79.3733 98.478 79.28C98.898 79.14 99.2714 78.93 99.598 78.65C99.7847 79.0233 99.9014 79.3967 99.948 79.77C99.9947 80.0967 100.018 80.4467 100.018 80.82C100.018 82.3133 99.388 83.55 98.128 84.53C96.868 85.51 95.3514 86 93.578 86C90.778 86 88.6314 85.2533 87.138 83.76C85.6447 82.2667 84.898 80.4 84.898 78.16V58.7C84.898 57.16 85.178 55.8767 85.738 54.85C86.3447 53.7767 87.0914 52.9133 87.978 52.26C88.9114 51.6067 89.9147 51.14 90.988 50.86C92.108 50.58 93.2047 50.44 94.278 50.44V75.08ZM116.548 35.18H117.318C119.745 35.18 121.775 35.8333 123.408 37.14C125.088 38.4467 125.928 40.5233 125.928 43.37V86H125.508C124.435 86 123.362 85.86 122.288 85.58C121.262 85.3 120.305 84.8567 119.418 84.25C118.578 83.5967 117.878 82.78 117.318 81.8C116.805 80.7733 116.548 79.5133 116.548 78.02V35.18ZM141.583 75.29C141.583 75.7567 141.583 76.2467 141.583 76.76C141.629 77.2733 141.723 77.74 141.863 78.16C142.049 78.58 142.306 78.93 142.633 79.21C142.959 79.49 143.426 79.63 144.033 79.63C144.779 79.63 145.339 79.4433 145.713 79.07C146.133 78.65 146.436 78.3 146.623 78.02C146.716 78.3 146.786 78.72 146.833 79.28C146.926 79.84 146.973 80.3067 146.973 80.68C146.973 82.4533 146.366 83.7833 145.153 84.67C143.986 85.5567 142.423 86 140.463 86C137.896 86 135.866 85.2067 134.373 83.62C132.926 82.0333 132.203 79.42 132.203 75.78V43.65C132.203 42.4833 132.343 41.3867 132.623 40.36C132.949 39.3333 133.439 38.4467 134.093 37.7C134.746 36.9067 135.586 36.3 136.613 35.88C137.686 35.4133 138.969 35.18 140.463 35.18C140.649 35.18 140.836 35.2033 141.023 35.25C141.209 35.25 141.396 35.25 141.583 35.25V75.29ZM142.773 50.79H142.913C143.006 50.79 143.216 50.79 143.543 50.79C143.869 50.7433 144.383 50.72 145.083 50.72H148.233C148.279 50.86 148.303 51.21 148.303 51.77C148.303 53.5433 147.883 54.9433 147.043 55.97C146.203 56.95 144.779 57.44 142.773 57.44V50.79ZM152.369 35.18H153.139C155.565 35.18 157.595 35.8333 159.229 37.14C160.909 38.4467 161.749 40.5233 161.749 43.37V86H161.329C160.255 86 159.182 85.86 158.109 85.58C157.082 85.3 156.125 84.8567 155.239 84.25C154.399 83.5967 153.699 82.78 153.139 81.8C152.625 80.7733 152.369 79.5133 152.369 78.02V35.18ZM168.329 61.36C168.329 60.8 168.282 60.2633 168.189 59.75C168.142 59.2367 168.002 58.7933 167.769 58.42C167.582 58 167.279 57.6733 166.859 57.44C166.485 57.16 165.949 57.02 165.249 57.02C164.875 57.02 164.479 57.09 164.059 57.23C163.685 57.3233 163.335 57.51 163.009 57.79C162.822 57.4167 162.705 57.0667 162.659 56.74C162.612 56.3667 162.589 55.9933 162.589 55.62C162.589 54.1267 163.219 52.89 164.479 51.91C165.739 50.93 167.255 50.44 169.029 50.44C171.829 50.44 173.975 51.1633 175.469 52.61C176.962 54.01 177.709 56.04 177.709 58.7V86C176.635 86 175.539 85.8833 174.419 85.65C173.345 85.37 172.342 84.9267 171.409 84.32C170.522 83.6667 169.775 82.8267 169.169 81.8C168.609 80.7267 168.329 79.3733 168.329 77.74V61.36ZM36.5048 149H35.8048C34.5915 149 33.4248 148.883 32.3048 148.65C31.1848 148.417 30.1815 147.997 29.2948 147.39C28.4548 146.783 27.7548 145.943 27.1948 144.87C26.6815 143.797 26.4248 142.397 26.4248 140.67V98.18H27.5448C28.6648 98.18 29.7615 98.32 30.8348 98.6C31.9081 98.8333 32.8648 99.2767 33.7048 99.93C34.5448 100.537 35.2215 101.377 35.7348 102.45C36.2481 103.523 36.5048 104.9 36.5048 106.58V149ZM51.8348 142.28C51.8348 143.073 51.6715 143.867 51.3448 144.66C51.0648 145.453 50.6215 146.177 50.0148 146.83C49.4548 147.437 48.7081 147.95 47.7748 148.37C46.8881 148.79 45.8615 149 44.6948 149H44.4148C43.1548 149 42.1048 148.79 41.2648 148.37C40.4248 147.903 39.7248 147.367 39.1648 146.76C38.6515 146.107 38.2781 145.43 38.0448 144.73C37.8581 143.983 37.7648 143.33 37.7648 142.77C37.7648 142.397 37.7648 142.07 37.7648 141.79C37.8115 141.463 37.9048 141.113 38.0448 140.74C38.6515 141.3 39.3981 141.58 40.2848 141.58C40.9848 141.58 41.5681 141.37 42.0348 140.95C42.5015 140.483 42.7348 139.807 42.7348 138.92V135.49C42.8281 135.443 43.1315 135.42 43.6448 135.42C44.2048 135.373 44.6481 135.35 44.9748 135.35C45.4881 135.35 46.1415 135.443 46.9348 135.63C47.7281 135.77 48.4748 136.097 49.1748 136.61C49.9215 137.123 50.5515 137.847 51.0648 138.78C51.5781 139.667 51.8348 140.833 51.8348 142.28ZM65.738 149H65.038C63.9647 149 62.9147 148.883 61.888 148.65C60.8613 148.37 59.928 147.927 59.088 147.32C58.2947 146.667 57.6413 145.827 57.128 144.8C56.6147 143.773 56.358 142.513 56.358 141.02V122.19C56.358 119.623 56.9647 117.523 58.178 115.89C59.438 114.257 61.468 113.44 64.268 113.44C66.1347 113.44 67.6747 113.93 68.888 114.91C70.1013 115.843 70.708 117.36 70.708 119.46C70.708 120.16 70.6147 120.673 70.428 121C69.7747 120.44 69.0747 120.16 68.328 120.16C67.3013 120.16 66.6013 120.51 66.228 121.21C65.9013 121.91 65.738 122.657 65.738 123.45V149ZM71.968 113.51C72.2013 113.463 72.4347 113.44 72.668 113.44H73.368C75.888 113.44 77.848 114.093 79.248 115.4C80.648 116.66 81.348 118.48 81.348 120.86V124.71C81.348 127.883 80.5547 130.24 78.968 131.78C77.3813 133.32 75.4447 134.09 73.158 134.09H72.668C70.8947 133.997 69.448 133.413 68.328 132.34C67.2547 131.22 66.718 129.89 66.718 128.35C66.718 128.117 66.718 127.907 66.718 127.72C66.7647 127.533 66.858 127.253 66.998 126.88C67.3713 127.253 67.698 127.533 67.978 127.72C68.258 127.907 68.7247 128 69.378 128C70.4513 128 71.1513 127.627 71.478 126.88C71.8047 126.087 71.968 125.177 71.968 124.15V113.51ZM81.068 142.21C81.068 143.517 80.8347 144.613 80.368 145.5C79.948 146.34 79.388 147.04 78.688 147.6C77.988 148.113 77.218 148.487 76.378 148.72C75.538 148.907 74.7213 149 73.928 149C71.548 149 69.868 148.417 68.888 147.25C67.908 146.083 67.418 144.777 67.418 143.33C67.418 143.097 67.418 142.817 67.418 142.49C67.4647 142.163 67.5813 141.813 67.768 141.44C68.3747 142 69.0747 142.28 69.868 142.28C70.988 142.187 71.6413 141.813 71.828 141.16C72.0147 140.507 72.108 139.69 72.108 138.71V136.12C72.808 135.933 73.648 135.84 74.628 135.84C75.8413 135.84 76.8447 136.027 77.638 136.4C78.478 136.773 79.1547 137.263 79.668 137.87C80.1813 138.477 80.5313 139.177 80.718 139.97C80.9513 140.717 81.068 141.463 81.068 142.21ZM103.285 124.36C103.285 123.8 103.238 123.263 103.145 122.75C103.098 122.237 102.958 121.793 102.725 121.42C102.538 121 102.235 120.673 101.815 120.44C101.441 120.16 100.905 120.02 100.205 120.02C99.8315 120.02 99.4348 120.09 99.0148 120.23C98.6415 120.323 98.2915 120.51 97.9648 120.79C97.7781 120.417 97.6615 120.067 97.6148 119.74C97.5681 119.367 97.5448 118.993 97.5448 118.62C97.5448 117.127 98.1748 115.89 99.4348 114.91C100.695 113.93 102.211 113.44 103.985 113.44C106.785 113.44 108.931 114.163 110.425 115.61C111.918 117.01 112.665 119.04 112.665 121.7V149C111.591 149 110.495 148.883 109.375 148.65C108.301 148.37 107.298 147.927 106.365 147.32C105.478 146.667 104.731 145.827 104.125 144.8C103.565 143.727 103.285 142.373 103.285 140.74V124.36ZM96.7048 138.08C96.7048 138.64 96.7281 139.177 96.7748 139.69C96.8681 140.203 97.0081 140.67 97.1948 141.09C97.4281 141.463 97.7315 141.79 98.1048 142.07C98.5248 142.303 99.0848 142.42 99.7848 142.42C100.158 142.42 100.531 142.373 100.905 142.28C101.325 142.14 101.698 141.93 102.025 141.65C102.211 142.023 102.328 142.397 102.375 142.77C102.421 143.097 102.445 143.447 102.445 143.82C102.445 145.313 101.815 146.55 100.555 147.53C99.2948 148.51 97.7781 149 96.0048 149C93.2048 149 91.0581 148.253 89.5648 146.76C88.0715 145.267 87.3248 143.4 87.3248 141.16V121.7C87.3248 120.16 87.6048 118.877 88.1648 117.85C88.7715 116.777 89.5181 115.913 90.4048 115.26C91.3381 114.607 92.3415 114.14 93.4148 113.86C94.5348 113.58 95.6315 113.44 96.7048 113.44V138.08ZM134.935 98.18H135.775C136.942 98.18 138.039 98.32 139.065 98.6C140.139 98.88 141.049 99.3467 141.795 100C142.589 100.653 143.195 101.563 143.615 102.73C144.082 103.85 144.315 105.273 144.315 107V141.44C144.315 142.56 144.082 143.587 143.615 144.52C143.195 145.453 142.589 146.247 141.795 146.9C141.049 147.553 140.139 148.067 139.065 148.44C138.039 148.813 136.919 149 135.705 149H134.935V98.18ZM118.975 121.14C118.975 118.9 119.722 117.057 121.215 115.61C122.709 114.163 124.855 113.44 127.655 113.44C129.429 113.44 130.945 113.93 132.205 114.91C133.465 115.89 134.095 117.127 134.095 118.62C134.095 118.993 134.072 119.367 134.025 119.74C133.979 120.067 133.862 120.417 133.675 120.79C133.022 120.277 132.275 120.02 131.435 120.02H131.155C130.082 120.113 129.335 120.51 128.915 121.21C128.542 121.91 128.355 122.773 128.355 123.8V137.87C128.355 139.41 128.635 140.553 129.195 141.3C129.755 142.047 130.502 142.42 131.435 142.42C132.275 142.42 132.999 142.163 133.605 141.65C133.932 142.303 134.095 143.027 134.095 143.82C134.095 145.313 133.465 146.55 132.205 147.53C130.945 148.51 129.429 149 127.655 149C124.855 149 122.709 148.277 121.215 146.83C119.722 145.337 118.975 142.98 118.975 139.76V121.14ZM159.306 131.5H158.676C157.602 131.5 156.529 131.383 155.456 131.15C154.429 130.87 153.496 130.427 152.656 129.82C151.862 129.167 151.209 128.327 150.696 127.3C150.182 126.273 149.926 125.013 149.926 123.52V121.7C149.926 120.02 150.206 118.643 150.766 117.57C151.326 116.497 152.049 115.657 152.936 115.05C153.822 114.443 154.826 114.023 155.946 113.79C157.066 113.557 158.186 113.44 159.306 113.44V131.5ZM165.256 130.94H165.886C166.959 130.94 168.009 131.08 169.036 131.36C170.109 131.593 171.042 132.037 171.836 132.69C172.676 133.297 173.352 134.113 173.866 135.14C174.379 136.167 174.636 137.427 174.636 138.92V140.74C174.636 142.42 174.356 143.797 173.796 144.87C173.236 145.943 172.512 146.783 171.626 147.39C170.739 147.997 169.736 148.417 168.616 148.65C167.496 148.883 166.376 149 165.256 149V130.94ZM174.356 119.6C174.356 121.093 174.076 122.283 173.516 123.17C172.956 124.057 172.279 124.757 171.486 125.27C170.692 125.783 169.852 126.133 168.966 126.32C168.079 126.46 167.309 126.53 166.656 126.53C166.096 126.53 165.629 126.483 165.256 126.39V123.17C165.256 122.19 165.022 121.467 164.556 121C164.089 120.533 163.506 120.3 162.806 120.3C161.919 120.3 161.172 120.58 160.566 121.14C160.426 120.767 160.332 120.44 160.286 120.16C160.286 119.833 160.286 119.483 160.286 119.11C160.286 118.55 160.379 117.92 160.566 117.22C160.752 116.473 161.102 115.797 161.616 115.19C162.129 114.537 162.829 114 163.716 113.58C164.602 113.113 165.722 112.88 167.076 112.88C168.336 112.88 169.409 113.09 170.296 113.51C171.229 113.883 171.976 114.397 172.536 115.05C173.142 115.703 173.586 116.427 173.866 117.22C174.192 118.013 174.356 118.807 174.356 119.6ZM150.276 142.28C150.276 140.833 150.556 139.667 151.116 138.78C151.676 137.847 152.352 137.123 153.146 136.61C153.939 136.097 154.779 135.77 155.666 135.63C156.552 135.443 157.322 135.35 157.976 135.35C158.536 135.35 159.002 135.397 159.376 135.49V138.71C159.376 139.69 159.609 140.413 160.076 140.88C160.542 141.347 161.126 141.58 161.826 141.58C162.666 141.58 163.412 141.3 164.066 140.74C164.206 141.113 164.276 141.463 164.276 141.79C164.322 142.07 164.346 142.397 164.346 142.77C164.346 143.33 164.229 143.983 163.996 144.73C163.809 145.43 163.436 146.107 162.876 146.76C162.362 147.367 161.662 147.903 160.776 148.37C159.936 148.79 158.862 149 157.556 149C156.296 149 155.199 148.813 154.266 148.44C153.379 148.02 152.632 147.483 152.026 146.83C151.466 146.177 151.022 145.453 150.696 144.66C150.416 143.867 150.276 143.073 150.276 142.28Z" fill="white"/>
</svg>
