<svg width="200" height="200" viewBox="0 0 200 200" fill="none" xmlns="http://www.w3.org/2000/svg">
<rect width="200" height="200" rx="8" fill="#142646"/>
<path d="M89.326 43.778C89.326 45.2473 89.036 47.0647 88.456 49.23C87.9147 51.3567 87.18 53.696 86.252 56.248C85.3627 58.7613 84.4153 61.3327 83.41 63.962C82.4047 66.5913 81.438 69.1433 80.51 71.618C79.6207 74.054 78.886 76.2773 78.306 78.288C77.7647 80.26 77.494 81.8453 77.494 83.044C77.494 84.8613 78.0933 85.77 79.292 85.77C80.452 85.77 81.8633 85.2287 83.526 84.146C85.1887 83.102 86.948 81.6907 88.804 79.912C90.6987 78.0947 92.5547 76.0453 94.372 73.764C96.1893 71.444 97.8327 69.0467 99.302 66.572C100.81 64.0973 102.009 61.6613 102.898 59.264C103.787 56.828 104.232 54.6047 104.232 52.594C104.232 51.2407 104.039 50.0227 103.652 48.94C103.304 47.8573 102.55 47.316 101.39 47.316C100.887 47.316 100.481 47.2193 100.172 47.026C99.9013 46.794 99.766 46.5813 99.766 46.388C99.766 46.0013 100.095 45.808 100.752 45.808C101.216 45.808 101.796 45.982 102.492 46.33C103.227 46.6393 103.942 47.142 104.638 47.838C105.373 48.4953 105.991 49.346 106.494 50.39C106.997 51.434 107.248 52.6713 107.248 54.102C107.248 55.8807 106.765 57.9493 105.798 60.308C104.87 62.628 103.594 65.0447 101.97 67.558C100.385 70.0327 98.5673 72.4687 96.518 74.866C94.5073 77.2247 92.4 79.3707 90.196 81.304C87.992 83.1987 85.8267 84.7067 83.7 85.828C81.612 86.988 79.6787 87.568 77.9 87.568C76.392 87.568 75.3867 87.104 74.884 86.176C74.3813 85.248 74.13 84.03 74.13 82.522C74.13 80.1633 74.5167 77.592 75.29 74.808C76.102 72.024 77.088 69.1433 78.248 66.166C79.4467 63.15 80.626 60.1533 81.786 57.176C82.9847 54.1987 83.9707 51.3373 84.744 48.592C85.556 45.8467 85.962 43.314 85.962 40.994C85.962 38.3647 85.208 36.586 83.7 35.658C82.2307 34.73 80.2973 34.266 77.9 34.266C75.5413 34.266 73.028 34.7107 70.36 35.6C67.7307 36.4893 65.14 37.746 62.588 39.37C60.0747 40.994 57.7933 42.9467 55.744 45.228C53.6947 47.4707 52.0513 49.984 50.814 52.768C49.6153 55.5133 49.016 58.4713 49.016 61.642C49.016 63.498 49.3253 65.238 49.944 66.862C50.6013 68.4473 51.6453 69.7427 53.076 70.748C54.5067 71.7147 56.382 72.198 58.702 72.198C60.442 72.198 62.1047 71.8307 63.69 71.096C65.314 70.3613 66.7447 69.3753 67.982 68.138C69.2193 66.862 70.2053 65.4507 70.94 63.904C71.6747 62.3573 72.042 60.772 72.042 59.148C72.042 57.8333 71.7713 56.6927 71.23 55.726C70.6887 54.7207 69.78 54.218 68.504 54.218C68.0013 54.218 67.4793 54.2953 66.938 54.45C66.3967 54.6047 66.0293 54.682 65.836 54.682C65.6427 54.682 65.546 54.566 65.546 54.334C65.546 54.2567 65.5847 54.16 65.662 54.044C65.7393 53.928 65.8747 53.812 66.068 53.696C66.4933 53.464 67.0153 53.29 67.634 53.174C68.2527 53.0193 68.794 52.942 69.258 52.942C70.9593 52.942 72.274 53.5413 73.202 54.74C74.13 55.9387 74.594 57.3887 74.594 59.09C74.594 60.946 74.1107 62.744 73.144 64.484C72.1773 66.224 70.882 67.79 69.258 69.182C67.6727 70.574 65.8747 71.676 63.864 72.488C61.892 73.3 59.862 73.706 57.774 73.706C55.1833 73.706 52.9793 73.068 51.162 71.792C49.3833 70.516 48.03 68.8533 47.102 66.804C46.2127 64.716 45.768 62.4927 45.768 60.134C45.768 57.0793 46.3673 54.1793 47.566 51.434C48.8033 48.65 50.4853 46.1367 52.612 43.894C54.7387 41.6127 57.1553 39.6407 59.862 37.978C62.5687 36.3153 65.4107 35.0393 68.388 34.15C71.404 33.222 74.4007 32.758 77.378 32.758C79.6207 32.758 81.6313 33.1253 83.41 33.86C85.2273 34.5947 86.658 35.774 87.702 37.398C88.7847 38.9833 89.326 41.11 89.326 43.778ZM109.386 82C107.955 82 106.95 81.594 106.37 80.782C105.79 79.9313 105.5 78.9647 105.5 77.882C105.5 77.302 105.558 76.722 105.674 76.142C105.829 75.5233 106.003 74.9627 106.196 74.46L110.082 64.542C110.198 64.2327 110.256 63.962 110.256 63.73C110.256 63.3433 110.159 63.0147 109.966 62.744C109.773 62.4347 109.637 62.222 109.56 62.106L112.75 61.99C113.33 61.9513 113.736 62.0287 113.968 62.222C114.239 62.3767 114.374 62.57 114.374 62.802C114.374 63.034 114.239 63.4593 113.968 64.078C113.581 65.006 113.059 66.166 112.402 67.558C111.745 68.95 111.087 70.3807 110.43 71.85C109.811 73.3193 109.27 74.692 108.806 75.968C108.381 77.244 108.168 78.23 108.168 78.926C108.168 79.4287 108.284 79.854 108.516 80.202C108.787 80.55 109.231 80.724 109.85 80.724C110.662 80.724 111.455 80.4147 112.228 79.796C113.04 79.1387 113.794 78.3073 114.49 77.302C115.186 76.2967 115.824 75.214 116.404 74.054C117.023 72.894 117.545 71.8113 117.97 70.806C118.434 70.806 118.666 70.98 118.666 71.328C118.279 72.2947 117.777 73.3967 117.158 74.634C116.539 75.8713 115.824 77.0507 115.012 78.172C114.239 79.2547 113.369 80.1633 112.402 80.898C111.474 81.6327 110.469 82 109.386 82ZM114.548 58.394C114.045 58.394 113.601 58.2007 113.214 57.814C112.866 57.4273 112.692 56.9633 112.692 56.422C112.692 55.7647 112.963 55.1847 113.504 54.682C114.045 54.1407 114.645 53.87 115.302 53.87C115.843 53.87 116.307 54.044 116.694 54.392C117.081 54.74 117.274 55.1847 117.274 55.726C117.274 56.422 117.003 57.0407 116.462 57.582C115.921 58.1233 115.283 58.394 114.548 58.394ZM119.871 82.406C118.672 82.406 117.841 82.0967 117.377 81.478C116.913 80.8593 116.681 80.0667 116.681 79.1C116.681 78.0947 116.855 76.954 117.203 75.678C117.551 74.402 118.015 72.9713 118.595 71.386C118.17 71.386 117.957 71.1927 117.957 70.806C118.266 70.0327 118.595 69.1627 118.943 68.196C119.33 67.1907 119.523 66.0693 119.523 64.832C119.523 64.2133 119.446 63.6913 119.291 63.266C119.136 62.8407 118.904 62.5893 118.595 62.512C118.595 62.512 118.788 62.4733 119.175 62.396C119.6 62.3187 120.045 62.2413 120.509 62.164C120.973 62.0867 121.282 62.048 121.437 62.048C121.669 62.0093 121.882 61.99 122.075 61.99C122.268 61.9513 122.442 61.932 122.597 61.932C122.984 61.932 123.235 62.0867 123.351 62.396C123.506 62.7053 123.564 63.382 123.525 64.426C123.486 65.3927 123.293 66.572 122.945 67.964C122.597 69.3173 122.23 70.4967 121.843 71.502C121.34 72.8167 120.876 74.1507 120.451 75.504C120.026 76.8573 119.813 77.9787 119.813 78.868C119.813 79.6413 120.026 80.144 120.451 80.376C120.76 80.492 121.031 80.55 121.263 80.55C122.152 80.55 123.022 80.1247 123.873 79.274C124.724 78.4233 125.516 77.3987 126.251 76.2C127.024 74.9627 127.662 73.7833 128.165 72.662C127.933 71.7727 127.817 70.7093 127.817 69.472C127.817 68.1573 127.972 66.8233 128.281 65.47C128.59 64.1167 129.074 62.9953 129.731 62.106C130.388 61.178 131.239 60.714 132.283 60.714C133.018 60.714 133.385 61.0427 133.385 61.7C133.385 61.8547 133.192 62.512 132.805 63.672C132.457 64.832 131.993 66.2047 131.413 67.79C130.833 69.3753 130.214 70.9027 129.557 72.372C129.402 72.6813 129.267 72.9907 129.151 73.3C129.306 73.9573 129.596 74.4987 130.021 74.924C130.446 75.3107 130.968 75.504 131.587 75.504C132.36 75.504 133.076 75.156 133.733 74.46C134.429 73.7253 135.144 72.5073 135.879 70.806C136.343 70.806 136.575 70.98 136.575 71.328C135.956 72.8747 135.202 74.112 134.313 75.04C133.462 75.968 132.496 76.432 131.413 76.432C130.098 76.432 129.151 75.7553 128.571 74.402C127.914 75.7553 127.14 77.0507 126.251 78.288C125.362 79.4867 124.376 80.4727 123.293 81.246C122.249 82.0193 121.108 82.406 119.871 82.406ZM148.442 82.174C147.552 82.174 146.76 81.9227 146.064 81.42C145.406 80.9173 145.078 79.8927 145.078 78.346C145.078 77.6887 145.116 77.07 145.194 76.49C145.31 75.91 145.445 75.2913 145.6 74.634C145.252 75.214 144.768 75.9293 144.15 76.78C143.531 77.6307 142.835 78.462 142.062 79.274C141.327 80.086 140.554 80.7627 139.742 81.304C138.968 81.8453 138.234 82.116 137.538 82.116C136.532 82.116 135.72 81.6713 135.102 80.782C134.483 79.854 134.174 78.6553 134.174 77.186C134.174 75.6007 134.541 73.8993 135.276 72.082C136.01 70.2647 137.016 68.5247 138.292 66.862C139.568 65.1993 141.037 63.846 142.7 62.802C144.362 61.758 146.102 61.236 147.92 61.236C148.809 61.236 149.66 61.3907 150.472 61.7C151.284 61.9707 151.999 62.4347 152.618 63.092C152.888 63.3627 153.024 63.672 153.024 64.02C153.024 64.252 152.927 64.4453 152.734 64.6C152.54 64.7547 152.289 64.7933 151.98 64.716C151.554 63.3627 150.646 62.686 149.254 62.686C148.596 62.686 147.842 62.8987 146.992 63.324C145.948 63.8653 144.826 64.7353 143.628 65.934C142.468 67.094 141.366 68.428 140.322 69.936C139.316 71.4053 138.485 72.894 137.828 74.402C137.17 75.91 136.842 77.2827 136.842 78.52C136.842 79.796 137.325 80.434 138.292 80.434C139.142 80.434 140.012 80.028 140.902 79.216C141.83 78.404 142.7 77.3987 143.512 76.2C144.362 74.9627 145.136 73.7447 145.832 72.546C146.528 71.3473 147.069 70.3807 147.456 69.646C148.036 68.602 148.577 67.732 149.08 67.036C149.582 66.34 150.298 65.992 151.226 65.992C151.651 65.992 152.076 66.05 152.502 66.166C152.927 66.282 153.372 66.3013 153.836 66.224C152.676 67.384 151.651 68.7567 150.762 70.342C149.911 71.9273 149.254 73.4933 148.79 75.04C148.326 76.548 148.094 77.824 148.094 78.868C148.094 80.028 148.48 80.608 149.254 80.608C149.872 80.608 150.53 80.26 151.226 79.564C151.96 78.868 152.656 77.998 153.314 76.954C154.01 75.8713 154.648 74.7887 155.228 73.706C155.808 72.5847 156.272 71.618 156.62 70.806C156.813 70.806 156.968 70.8253 157.084 70.864C157.238 70.9027 157.316 71.0573 157.316 71.328C157.277 71.4827 157.2 71.6567 157.084 71.85C157.006 72.0047 156.871 72.2947 156.678 72.72C156.368 73.3387 155.943 74.17 155.402 75.214C154.86 76.258 154.222 77.3213 153.488 78.404C152.753 79.448 151.96 80.3373 151.11 81.072C150.259 81.8067 149.37 82.174 148.442 82.174Z" fill="white"/>
<path d="M102.342 162.038C101.955 162.038 101.704 161.961 101.588 161.806C101.472 161.69 101.414 161.555 101.414 161.4C102.11 161.284 102.787 160.762 103.444 159.834C104.101 158.945 104.43 157.901 104.43 156.702C104.43 154.807 103.811 152.971 102.574 151.192C101.337 149.452 99.5967 147.847 97.354 146.378C95.1113 144.909 92.482 143.652 89.466 142.608C86.4887 141.525 83.2213 140.733 79.664 140.23C78.3493 142.086 76.8607 143.787 75.198 145.334C73.574 146.919 71.7567 148.176 69.746 149.104C67.774 150.071 65.628 150.554 63.308 150.554C60.872 150.554 59.016 149.993 57.74 148.872C56.464 147.751 55.826 146.455 55.826 144.986C55.826 143.633 56.3673 142.279 57.45 140.926C58.5713 139.534 60.2533 138.393 62.496 137.504C64.7773 136.576 67.658 136.112 71.138 136.112C73.806 136.112 76.5127 136.344 79.258 136.808C80.2247 135.107 81.0947 133.405 81.868 131.704C82.6413 130.003 83.318 128.398 83.898 126.89C80.07 126.735 77.054 126.155 74.85 125.15C72.646 124.106 71.08 122.811 70.152 121.264C69.224 119.717 68.76 118.132 68.76 116.508C68.76 114.459 69.3787 112.525 70.616 110.708C71.8533 108.852 73.5353 107.344 75.662 106.184C77.7887 105.024 80.1667 104.444 82.796 104.444C83.1053 104.444 83.2987 104.56 83.376 104.792C83.4533 105.024 83.492 105.217 83.492 105.372C82.0227 105.372 80.592 105.701 79.2 106.358C77.8467 107.015 76.6287 107.905 75.546 109.026C74.4633 110.109 73.5933 111.327 72.936 112.68C72.3173 114.033 72.008 115.425 72.008 116.856C72.008 118.248 72.3753 119.621 73.11 120.974C73.8447 122.289 75.1013 123.391 76.88 124.28C78.6587 125.169 81.1527 125.653 84.362 125.73C84.71 124.841 85 124.029 85.232 123.294C85.5027 122.521 85.7347 121.863 85.928 121.322C86.856 118.538 87.842 115.773 88.886 113.028C89.9687 110.283 91.1867 107.789 92.54 105.546C93.932 103.303 95.5753 101.505 97.47 100.152C99.3647 98.7987 101.627 98.122 104.256 98.122C105.957 98.122 107.272 98.6053 108.2 99.572C109.167 100.539 109.65 101.873 109.65 103.574C109.65 105.237 109.263 107.073 108.49 109.084C107.717 111.056 106.634 113.028 105.242 115C103.85 116.972 102.207 118.809 100.312 120.51C98.4173 122.211 96.3487 123.623 94.106 124.744C91.8633 125.865 89.5047 126.561 87.03 126.832C86.45 128.069 85.7153 129.635 84.826 131.53C83.9367 133.386 82.8733 135.3 81.636 137.272C85 138.045 88.1707 139.089 91.148 140.404C94.164 141.719 96.8127 143.207 99.094 144.87C101.414 146.571 103.231 148.369 104.546 150.264C105.861 152.197 106.518 154.111 106.518 156.006C106.518 157.707 106.093 159.138 105.242 160.298C104.391 161.458 103.425 162.038 102.342 162.038ZM104.256 101.08C102.593 101.08 101.027 101.815 99.558 103.284C98.0887 104.715 96.6773 106.629 95.324 109.026C94.0093 111.385 92.714 114.014 91.438 116.914C90.162 119.814 88.886 122.695 87.61 125.556C89.8913 125.247 92.018 124.551 93.99 123.468C95.962 122.385 97.76 121.071 99.384 119.524C101.008 117.939 102.4 116.257 103.56 114.478C104.72 112.699 105.609 110.959 106.228 109.258C106.847 107.518 107.156 105.971 107.156 104.618C107.156 103.535 106.924 102.685 106.46 102.066C105.996 101.409 105.261 101.08 104.256 101.08ZM57.276 145.798C57.276 146.765 57.798 147.596 58.842 148.292C59.886 149.027 61.3747 149.394 63.308 149.394C66.1693 149.394 68.76 148.466 71.08 146.61C73.4 144.793 75.4687 142.569 77.286 139.94C75.2367 139.747 73.1873 139.65 71.138 139.65C67.9673 139.65 65.3573 139.979 63.308 140.636C61.2587 141.255 59.7313 142.047 58.726 143.014C57.7593 143.942 57.276 144.87 57.276 145.798ZM105.002 144.232C103.572 144.232 102.276 143.768 101.116 142.84C99.995 141.912 99.4343 140.501 99.4343 138.606C99.4343 137.021 99.7823 135.339 100.478 133.56C101.213 131.781 102.16 130.119 103.32 128.572C104.519 126.987 105.834 125.711 107.264 124.744C108.734 123.739 110.203 123.236 111.672 123.236C112.407 123.236 113.122 123.449 113.818 123.874C114.514 124.299 114.862 125.034 114.862 126.078C114.862 127.045 114.495 128.108 113.76 129.268C113.026 130.428 111.982 131.511 110.628 132.516C110.048 132.941 109.314 133.347 108.424 133.734C107.535 134.121 106.646 134.449 105.756 134.72C104.867 134.952 104.132 135.068 103.552 135.068C103.359 135.532 103.166 136.151 102.972 136.924C102.818 137.697 102.74 138.49 102.74 139.302C102.74 140.269 102.934 141.139 103.32 141.912C103.707 142.685 104.422 143.072 105.466 143.072C106.742 143.072 107.922 142.705 109.004 141.97C110.126 141.235 111.112 140.307 111.962 139.186C112.852 138.065 113.606 136.924 114.224 135.764C114.843 134.604 115.326 133.618 115.674 132.806C116.138 132.806 116.37 132.98 116.37 133.328C115.868 134.411 115.288 135.59 114.63 136.866C114.012 138.142 113.258 139.341 112.368 140.462C111.518 141.545 110.474 142.453 109.236 143.188C108.038 143.884 106.626 144.232 105.002 144.232ZM103.958 134.024C104.5 134.024 105.408 133.831 106.684 133.444C107.96 133.019 109.12 132.361 110.164 131.472C111.17 130.583 111.943 129.616 112.484 128.572C113.026 127.489 113.296 126.581 113.296 125.846C113.296 124.995 112.987 124.57 112.368 124.57C111.904 124.57 111.266 124.879 110.454 125.498C109.642 126.117 108.637 127.161 107.438 128.63C106.704 129.558 106.008 130.563 105.35 131.646C104.693 132.729 104.229 133.521 103.958 134.024ZM117.58 144.406C116.381 144.406 115.55 144.097 115.086 143.478C114.622 142.859 114.39 142.067 114.39 141.1C114.39 140.095 114.564 138.954 114.912 137.678C115.26 136.402 115.724 134.971 116.304 133.386C115.879 133.386 115.666 133.193 115.666 132.806C115.975 132.033 116.304 131.163 116.652 130.196C117.039 129.191 117.232 128.069 117.232 126.832C117.232 126.213 117.155 125.691 117 125.266C116.845 124.841 116.613 124.589 116.304 124.512C116.304 124.512 116.497 124.473 116.884 124.396C117.309 124.319 117.754 124.241 118.218 124.164C118.682 124.087 118.991 124.048 119.146 124.048C119.378 124.009 119.591 123.99 119.784 123.99C119.977 123.951 120.151 123.932 120.306 123.932C120.693 123.932 120.944 124.087 121.06 124.396C121.215 124.705 121.273 125.382 121.234 126.426C121.195 127.393 121.002 128.572 120.654 129.964C120.306 131.317 119.939 132.497 119.552 133.502C119.049 134.817 118.585 136.151 118.16 137.504C117.735 138.857 117.522 139.979 117.522 140.868C117.522 141.641 117.735 142.144 118.16 142.376C118.469 142.492 118.74 142.55 118.972 142.55C119.861 142.55 120.731 142.125 121.582 141.274C122.433 140.423 123.225 139.399 123.96 138.2C124.733 136.963 125.371 135.783 125.874 134.662C125.642 133.773 125.526 132.709 125.526 131.472C125.526 130.157 125.681 128.823 125.99 127.47C126.299 126.117 126.783 124.995 127.44 124.106C128.097 123.178 128.948 122.714 129.992 122.714C130.727 122.714 131.094 123.043 131.094 123.7C131.094 123.855 130.901 124.512 130.514 125.672C130.166 126.832 129.702 128.205 129.122 129.79C128.542 131.375 127.923 132.903 127.266 134.372C127.111 134.681 126.976 134.991 126.86 135.3C127.015 135.957 127.305 136.499 127.73 136.924C128.155 137.311 128.677 137.504 129.296 137.504C130.069 137.504 130.785 137.156 131.442 136.46C132.138 135.725 132.853 134.507 133.588 132.806C134.052 132.806 134.284 132.98 134.284 133.328C133.665 134.875 132.911 136.112 132.022 137.04C131.171 137.968 130.205 138.432 129.122 138.432C127.807 138.432 126.86 137.755 126.28 136.402C125.623 137.755 124.849 139.051 123.96 140.288C123.071 141.487 122.085 142.473 121.002 143.246C119.958 144.019 118.817 144.406 117.58 144.406ZM137.741 144.232C136.31 144.232 135.015 143.768 133.855 142.84C132.733 141.912 132.173 140.501 132.173 138.606C132.173 137.021 132.521 135.339 133.217 133.56C133.951 131.781 134.899 130.119 136.059 128.572C137.257 126.987 138.572 125.711 140.003 124.744C141.472 123.739 142.941 123.236 144.411 123.236C145.145 123.236 145.861 123.449 146.557 123.874C147.253 124.299 147.601 125.034 147.601 126.078C147.601 127.045 147.233 128.108 146.499 129.268C145.764 130.428 144.72 131.511 143.367 132.516C142.787 132.941 142.052 133.347 141.163 133.734C140.273 134.121 139.384 134.449 138.495 134.72C137.605 134.952 136.871 135.068 136.291 135.068C136.097 135.532 135.904 136.151 135.711 136.924C135.556 137.697 135.479 138.49 135.479 139.302C135.479 140.269 135.672 141.139 136.059 141.912C136.445 142.685 137.161 143.072 138.205 143.072C139.481 143.072 140.66 142.705 141.743 141.97C142.864 141.235 143.85 140.307 144.701 139.186C145.59 138.065 146.344 136.924 146.963 135.764C147.581 134.604 148.065 133.618 148.413 132.806C148.877 132.806 149.109 132.98 149.109 133.328C148.606 134.411 148.026 135.59 147.369 136.866C146.75 138.142 145.996 139.341 145.107 140.462C144.256 141.545 143.212 142.453 141.975 143.188C140.776 143.884 139.365 144.232 137.741 144.232ZM136.697 134.024C137.238 134.024 138.147 133.831 139.423 133.444C140.699 133.019 141.859 132.361 142.903 131.472C143.908 130.583 144.681 129.616 145.223 128.572C145.764 127.489 146.035 126.581 146.035 125.846C146.035 124.995 145.725 124.57 145.107 124.57C144.643 124.57 144.005 124.879 143.193 125.498C142.381 126.117 141.375 127.161 140.177 128.63C139.442 129.558 138.746 130.563 138.089 131.646C137.431 132.729 136.967 133.521 136.697 134.024Z" fill="white"/>
</svg>
